<svg width="142" height="257" viewBox="0 0 142 257" fill="none" xmlns="http://www.w3.org/2000/svg">
<path d="M135.03 224.561C136.853 223.915 141.672 223.288 141.672 223.288C140.686 220.269 140.836 3.06146 140.925 0.697464C141.008 -1.51154 136.604 2.05247 135.188 4.09447L92.5459 72.7525C91.4159 74.3805 89.7219 75.5325 87.7919 75.9825L6.18687 90.6245C0.418869 91.9725 -1.93613 98.9015 1.81687 103.484L56.4079 163.277C57.7149 164.873 58.3549 166.912 58.1949 168.968L47.8089 247.952C47.3599 253.724 53.0009 258.048 58.4589 256.113L135.03 224.561Z" fill="url(#paint0_linear_94_598)" fill-opacity="0.7"/>
<defs>
<linearGradient id="paint0_linear_94_598" x1="138.241" y1="256.509" x2="140.861" y2="59.695" gradientUnits="userSpaceOnUse">
<stop stop-color="#FF3A40"/>
<stop offset="1" stop-color="#366EFD"/>
</linearGradient>
</defs>
</svg>
