<svg width="175" height="169" viewBox="0 0 175 169" fill="none" xmlns="http://www.w3.org/2000/svg">
<path d="M83.633 27.0463C85.7687 24.9838 89.2313 24.9838 91.367 27.0463L154.727 88.2337C156.862 90.2962 160.325 90.2962 162.461 88.2337C164.596 86.1713 164.596 82.8274 162.461 80.7649L99.101 19.5775C92.6939 13.3901 82.3061 13.3901 75.899 19.5775L12.5393 80.7649C10.4036 82.8274 10.4036 86.1713 12.5393 88.2337C14.6749 90.2962 18.1376 90.2962 20.2732 88.2337L83.633 27.0463Z" fill="black" fill-opacity="0.3"/>
<path d="M87.5 38.2495L146.993 95.7026C147.209 95.9118 147.431 96.114 147.656 96.3091V139.952C147.656 147.244 141.535 153.156 133.984 153.156H109.375C106.355 153.156 103.906 150.791 103.906 147.874V116.187C103.906 113.27 101.458 110.906 98.4375 110.906H76.5625C73.5422 110.906 71.0938 113.27 71.0938 116.187V147.874C71.0938 150.791 68.6453 153.156 65.625 153.156H41.0156C33.4649 153.156 27.3438 147.244 27.3438 139.952V96.3091C27.5693 96.114 27.7905 95.9118 28.0072 95.7026L87.5 38.2495Z" fill="black" fill-opacity="0.3"/>
</svg>
