<svg width="466" height="600" viewBox="0 0 466 600" fill="none" xmlns="http://www.w3.org/2000/svg">
<path d="M336.544 156.367L386.863 128.072V83.3958L415.617 67.0145L336.544 22.3382L257.471 67.0145V126.583H271.847V75.2052L286.224 83.3958V128.072L336.544 156.367ZM336.544 94.5649L287.303 67.0145L336.544 39.4641L385.785 67.0145L336.544 94.5649ZM336.544 139.427L300.601 119.323V91.2142L336.544 111.691L372.486 91.2142V119.323L336.544 139.427Z" fill="#ECECEC"/>
<path d="M203.628 456.904L252.701 161.312H369.321C391.645 161.312 410.023 165.257 424.456 173.147C438.986 181.037 449.185 192.247 455.055 206.777C461.02 221.21 462.415 238.241 459.24 257.87C455.969 277.499 448.896 294.338 438.023 308.386C427.247 322.435 413.198 333.26 395.878 340.861C378.655 348.367 358.689 352.119 335.98 352.119H257.897L266.557 301.892H334.393C346.324 301.892 356.524 300.256 364.991 296.984C373.459 293.713 380.146 288.805 385.053 282.262C390.057 275.719 393.328 267.589 394.868 257.87C396.504 247.959 395.926 239.684 393.136 233.045C390.346 226.31 385.294 221.21 377.981 217.746C370.668 214.186 361.046 212.406 349.115 212.406H306.97L266.124 456.904H203.628ZM385.486 322.387L436.724 456.904H367.734L318.083 322.387H385.486Z" fill="#ECECEC"/>
<path d="M196.411 537.73H465.591V565.442H196.411V537.73Z" fill="#ECECEC"/>
<rect x="181.16" y="75.8655" width="90.919" height="58.351" fill="#212121"/>
<rect x="244.641" y="59.5684" width="43.4236" height="22.5666" transform="rotate(29.8145 244.641 59.5684)" fill="#212121"/>
<path d="M263.766 66.874C166.267 109.238 247.918 449.314 132.541 489.658" stroke="#ECECEC" stroke-width="5.428"/>
<g filter="url(#filter0_d_0_1)">
<path d="M119.785 445.715L88.3788 419.529C87.2336 418.623 85.5355 419.21 85.1938 420.629L76.6549 460.619C76.5374 461.107 76.2409 461.533 75.8241 461.812L41.3771 483.636C40.1694 484.446 40.2017 486.232 41.4378 486.998L76.7329 507.615C77.1576 507.878 77.4686 508.291 77.6045 508.772L87.7273 548.452C88.1239 549.854 89.8395 550.375 90.9489 549.43L121.298 522.182C121.681 521.855 122.173 521.685 122.675 521.706L163.372 524.403C164.828 524.462 165.856 522.993 165.302 521.645L148.767 484.181C148.577 483.718 148.567 483.202 148.739 482.733L163.775 444.723C164.275 443.357 163.197 441.932 161.747 442.041L121.175 446.141C120.674 446.178 120.178 446.026 119.785 445.715Z" fill="url(#paint0_linear_0_1)"/>
</g>
<path d="M254.496 71.3698L262.645 69.1219L282.594 69.4029" stroke="#ECECEC" stroke-width="2.24786"/>
<defs>
<filter id="filter0_d_0_1" x="0.492188" y="389.096" width="204.961" height="210.813" filterUnits="userSpaceOnUse" color-interpolation-filters="sRGB">
<feFlood flood-opacity="0" result="BackgroundImageFix"/>
<feColorMatrix in="SourceAlpha" type="matrix" values="0 0 0 0 0 0 0 0 0 0 0 0 0 0 0 0 0 0 127 0" result="hardAlpha"/>
<feOffset dy="10"/>
<feGaussianBlur stdDeviation="20"/>
<feColorMatrix type="matrix" values="0 0 0 0 0 0 0 0 0 0 0 0 0 0 0 0 0 0 0.76 0"/>
<feBlend mode="normal" in2="BackgroundImageFix" result="effect1_dropShadow_0_1"/>
<feBlend mode="normal" in="SourceGraphic" in2="effect1_dropShadow_0_1" result="shape"/>
</filter>
<linearGradient id="paint0_linear_0_1" x1="127.513" y1="536.537" x2="95.828" y2="446.327" gradientUnits="userSpaceOnUse">
<stop stop-color="#FF6666"/>
<stop offset="1" stop-color="#375EEE"/>
</linearGradient>
</defs>
</svg>
