<svg width="45" height="45" viewBox="0 0 45 45" fill="none" xmlns="http://www.w3.org/2000/svg">
<path d="M9.375 35.625H12.0469L30.375 17.2969L27.7031 14.625L9.375 32.9531V35.625ZM5.625 39.375V31.4062L30.375 6.70312C30.75 6.35938 31.1641 6.09375 31.6172 5.90625C32.0703 5.71875 32.5469 5.625 33.0469 5.625C33.5469 5.625 34.0312 5.71875 34.5 5.90625C34.9688 6.09375 35.375 6.375 35.7188 6.75L38.2969 9.375C38.6719 9.71875 38.9453 10.125 39.1172 10.5938C39.2891 11.0625 39.375 11.5312 39.375 12C39.375 12.5 39.2891 12.9766 39.1172 13.4297C38.9453 13.8828 38.6719 14.2969 38.2969 14.6719L13.5938 39.375H5.625ZM29.0156 15.9844L27.7031 14.625L30.375 17.2969L29.0156 15.9844Z" fill="#E8EAED"/>
</svg>
