<svg width="130" height="129" viewBox="0 0 130 129" fill="none" xmlns="http://www.w3.org/2000/svg">
<path fill-rule="evenodd" clip-rule="evenodd" d="M85.3125 24.1873C85.3125 15.2817 92.5879 8.06226 101.562 8.06226C110.537 8.06226 117.812 15.2817 117.812 24.1873C117.812 33.0928 110.537 40.3123 101.562 40.3123C96.9222 40.3123 92.7396 38.3813 89.7819 35.2933L44.1671 60.4399C44.5069 61.7388 44.6875 63.0998 44.6875 64.4998C44.6875 65.8997 44.5069 67.2607 44.1671 68.5596L89.7819 93.7062C92.7396 90.6183 96.9222 88.6873 101.562 88.6873C110.537 88.6873 117.812 95.9067 117.812 104.812C117.812 113.718 110.537 120.937 101.562 120.937C92.5879 120.937 85.3125 113.718 85.3125 104.812C85.3125 103.412 85.4931 102.051 85.8329 100.752L40.2181 75.6058C37.2604 78.6937 33.0778 80.6248 28.4375 80.6248C19.4629 80.6248 12.1875 73.4053 12.1875 64.4998C12.1875 55.5942 19.4629 48.3748 28.4375 48.3748C33.0778 48.3748 37.2604 50.3058 40.2181 53.3937L85.8329 28.2471C85.4931 26.9482 85.3125 25.5872 85.3125 24.1873Z" fill="black" fill-opacity="0.3"/>
</svg>
