<svg width="383" height="346" viewBox="0 0 383 346" fill="none" xmlns="http://www.w3.org/2000/svg">
<g filter="url(#filter0_d_0_1)">
<path d="M96.3752 112.299L81.5 90L66.6248 112.299L40 119.03L57.43 139.541L55.8511 166L81.5 156.379L107.149 166L105.57 139.541L123 119.03L96.3752 112.299Z" fill="url(#paint0_linear_0_1)"/>
</g>
<g filter="url(#filter1_d_0_1)">
<path d="M206.375 52.2987L191.5 30L176.625 52.2987L150 59.0301L167.43 79.5405L165.851 106L191.5 96.3786L217.149 106L215.57 79.5405L233 59.0301L206.375 52.2987Z" fill="url(#paint1_linear_0_1)" fill-opacity="0.7"/>
</g>
<g filter="url(#filter2_d_0_1)">
<path d="M316.375 112.299L301.5 90L286.625 112.299L260 119.03L277.43 139.541L275.851 166L301.5 156.379L327.149 166L325.57 139.541L343 119.03L316.375 112.299Z" fill="url(#paint2_linear_0_1)"/>
</g>
<g filter="url(#filter3_d_0_1)">
<path d="M139.375 242.299L124.5 220L109.625 242.299L83 249.03L100.43 269.541L98.8511 296L124.5 286.379L150.149 296L148.57 269.541L166 249.03L139.375 242.299Z" fill="url(#paint3_linear_0_1)"/>
</g>
<g filter="url(#filter4_d_0_1)">
<path d="M270.375 242.299L255.5 220L240.625 242.299L214 249.03L231.43 269.541L229.851 296L255.5 286.379L281.149 296L279.57 269.541L297 249.03L270.375 242.299Z" fill="url(#paint4_linear_0_1)"/>
</g>
<defs>
<filter id="filter0_d_0_1" x="0" y="60" width="163" height="156" filterUnits="userSpaceOnUse" color-interpolation-filters="sRGB">
<feFlood flood-opacity="0" result="BackgroundImageFix"/>
<feColorMatrix in="SourceAlpha" type="matrix" values="0 0 0 0 0 0 0 0 0 0 0 0 0 0 0 0 0 0 127 0" result="hardAlpha"/>
<feOffset dy="10"/>
<feGaussianBlur stdDeviation="20"/>
<feColorMatrix type="matrix" values="0 0 0 0 0 0 0 0 0 0 0 0 0 0 0 0 0 0 0.51 0"/>
<feBlend mode="normal" in2="BackgroundImageFix" result="effect1_dropShadow_0_1"/>
<feBlend mode="normal" in="SourceGraphic" in2="effect1_dropShadow_0_1" result="shape"/>
</filter>
<filter id="filter1_d_0_1" x="110" y="0" width="163" height="156" filterUnits="userSpaceOnUse" color-interpolation-filters="sRGB">
<feFlood flood-opacity="0" result="BackgroundImageFix"/>
<feColorMatrix in="SourceAlpha" type="matrix" values="0 0 0 0 0 0 0 0 0 0 0 0 0 0 0 0 0 0 127 0" result="hardAlpha"/>
<feOffset dy="10"/>
<feGaussianBlur stdDeviation="20"/>
<feColorMatrix type="matrix" values="0 0 0 0 0 0 0 0 0 0 0 0 0 0 0 0 0 0 0.5 0"/>
<feBlend mode="normal" in2="BackgroundImageFix" result="effect1_dropShadow_0_1"/>
<feBlend mode="normal" in="SourceGraphic" in2="effect1_dropShadow_0_1" result="shape"/>
</filter>
<filter id="filter2_d_0_1" x="220" y="60" width="163" height="156" filterUnits="userSpaceOnUse" color-interpolation-filters="sRGB">
<feFlood flood-opacity="0" result="BackgroundImageFix"/>
<feColorMatrix in="SourceAlpha" type="matrix" values="0 0 0 0 0 0 0 0 0 0 0 0 0 0 0 0 0 0 127 0" result="hardAlpha"/>
<feOffset dy="10"/>
<feGaussianBlur stdDeviation="20"/>
<feColorMatrix type="matrix" values="0 0 0 0 0 0 0 0 0 0 0 0 0 0 0 0 0 0 0.5 0"/>
<feBlend mode="normal" in2="BackgroundImageFix" result="effect1_dropShadow_0_1"/>
<feBlend mode="normal" in="SourceGraphic" in2="effect1_dropShadow_0_1" result="shape"/>
</filter>
<filter id="filter3_d_0_1" x="43" y="190" width="163" height="156" filterUnits="userSpaceOnUse" color-interpolation-filters="sRGB">
<feFlood flood-opacity="0" result="BackgroundImageFix"/>
<feColorMatrix in="SourceAlpha" type="matrix" values="0 0 0 0 0 0 0 0 0 0 0 0 0 0 0 0 0 0 127 0" result="hardAlpha"/>
<feOffset dy="10"/>
<feGaussianBlur stdDeviation="20"/>
<feColorMatrix type="matrix" values="0 0 0 0 0 0 0 0 0 0 0 0 0 0 0 0 0 0 0.5 0"/>
<feBlend mode="normal" in2="BackgroundImageFix" result="effect1_dropShadow_0_1"/>
<feBlend mode="normal" in="SourceGraphic" in2="effect1_dropShadow_0_1" result="shape"/>
</filter>
<filter id="filter4_d_0_1" x="174" y="190" width="163" height="156" filterUnits="userSpaceOnUse" color-interpolation-filters="sRGB">
<feFlood flood-opacity="0" result="BackgroundImageFix"/>
<feColorMatrix in="SourceAlpha" type="matrix" values="0 0 0 0 0 0 0 0 0 0 0 0 0 0 0 0 0 0 127 0" result="hardAlpha"/>
<feOffset dy="10"/>
<feGaussianBlur stdDeviation="20"/>
<feColorMatrix type="matrix" values="0 0 0 0 0 0 0 0 0 0 0 0 0 0 0 0 0 0 0.5 0"/>
<feBlend mode="normal" in2="BackgroundImageFix" result="effect1_dropShadow_0_1"/>
<feBlend mode="normal" in="SourceGraphic" in2="effect1_dropShadow_0_1" result="shape"/>
</filter>
<linearGradient id="paint0_linear_0_1" x1="81.7915" y1="166" x2="81.508" y2="107.538" gradientUnits="userSpaceOnUse">
<stop stop-color="#FF3A40"/>
<stop offset="1" stop-color="#366EFD"/>
</linearGradient>
<linearGradient id="paint1_linear_0_1" x1="191.792" y1="106" x2="191.508" y2="47.5384" gradientUnits="userSpaceOnUse">
<stop stop-color="#FF3A40"/>
<stop offset="1" stop-color="#366EFD"/>
</linearGradient>
<linearGradient id="paint2_linear_0_1" x1="301.792" y1="166" x2="301.508" y2="107.538" gradientUnits="userSpaceOnUse">
<stop stop-color="#FF3A40"/>
<stop offset="1" stop-color="#366EFD"/>
</linearGradient>
<linearGradient id="paint3_linear_0_1" x1="124.792" y1="296" x2="124.508" y2="237.538" gradientUnits="userSpaceOnUse">
<stop stop-color="#FF3A40"/>
<stop offset="1" stop-color="#366EFD"/>
</linearGradient>
<linearGradient id="paint4_linear_0_1" x1="255.792" y1="296" x2="255.508" y2="237.538" gradientUnits="userSpaceOnUse">
<stop stop-color="#FF3A40"/>
<stop offset="1" stop-color="#366EFD"/>
</linearGradient>
</defs>
</svg>
